PathFileType	4	(X/Y/Z)	/Users/itak/Documents/Research/Walk-IL/dataset/trc/00440_00167.trc
DataRate	CameraRate	NumFrames	NumMarkers	Units	OrigDataRate	OrigDataStartFrame	OrigNumFrames
100.000000	100.000000	4	53	mm	100.000000	183	490
Frame#	Time	RPSI			LPSI			L3			STRN			T10			C7			CLAV			RBAK			LBAK			LSHO			LUPA			LAEL			LAOL			LWTS			LWPS			LFRA			LIFD			LHPS			LHTS			RSHO			RUPA			RAEL			RAOL			RWTS			RWPS			RFRA			RIFD			RHTS			RHPS			RBHD			LFHD			RFHD			LBHD			LHIP			RHIP			RASI			LASI			LKNE			LTHI			LANK			LTIP			LTOE			LMT1			LMT5			LHEE			RKNE			RTHI			RANK			RTIP			RTOE			RMT1			RMT5			RHEE			
		X1	Y1	Z1	X2	Y2	Z2	X3	Y3	Z3	X4	Y4	Z4	X5	Y5	Z5	X6	Y6	Z6	X7	Y7	Z7	X8	Y8	Z8	X9	Y9	Z9	X10	Y10	Z10	X11	Y11	Z11	X12	Y12	Z12	X13	Y13	Z13	X14	Y14	Z14	X15	Y15	Z15	X16	Y16	Z16	X17	Y17	Z17	X18	Y18	Z18	X19	Y19	Z19	X20	Y20	Z20	X21	Y21	Z21	X22	Y22	Z22	X23	Y23	Z23	X24	Y24	Z24	X25	Y25	Z25	X26	Y26	Z26	X27	Y27	Z27	X28	Y28	Z28	X29	Y29	Z29	X30	Y30	Z30	X31	Y31	Z31	X32	Y32	Z32	X33	Y33	Z33	X34	Y34	Z34	X35	Y35	Z35	X36	Y36	Z36	X37	Y37	Z37	X38	Y38	Z38	X39	Y39	Z39	X40	Y40	Z40	X41	Y41	Z41	X42	Y42	Z42	X43	Y43	Z43	X44	Y44	Z44	X45	Y45	Z45	X46	Y46	Z46	X47	Y47	Z47	X48	Y48	Z48	X49	Y49	Z49	X50	Y50	Z50	X51	Y51	Z51	X52	Y52	Z52	X53	Y53	Z53	

184	1.83	-737.13525390625	945.8988037109375	-127.9383697509766	-672.27294921875	941.9342041015625	-255.1013793945312	-694.6734619140625	1050.646606445312	-162.9210662841797	-433.8785095214844	1218.289672851562	-30.84163284301758	-699.5105590820312	1174.314819335938	-160.9063110351562	-634.7291259765625	1431.307373046875	-91.19395446777344	-461.2278747558594	1335.4248046875	-35.07997131347656	-734.94677734375	1309.5283203125	-44.02748870849609	-622.3892211914062	1400.319458007812	-200.2183074951172	-491.0296630859375	1418.467041015625	-221.1919250488281	-460.2530212402344	1315.422729492188	-329.6163635253906	-429.3191833496094	1107.593383789062	-386.5189514160156	-531.0221557617188	1094.58984375	-375.7994384765625	-384.8778686523438	897.574951171875	-332.1986694335938	-391.7151489257812	891.004150390625	-405.2271423339844	-406.4261474609375	1020.352478027344	-394.9122009277344	-367.7369689941406	733.1034545898438	-349.1023864746094	-382.49560546875	810.9071044921875	-408.4056091308594	-363.729736328125	811.8491821289062	-339.7772827148438	-637.4091796875	1380.720825195312	79.61473846435547	-683.57421875	1315.423828125	137.4229583740234	-696.36181640625	1027.527465820312	182.2722930908203	-731.9784545898438	1011.280639648438	126.7211608886719	-577.15869140625	833.0773315429688	171.0195007324219	-658.7195434570312	811.9961547851562	199.0449981689453	-693.9140014648438	968.7921752929688	190.7623291015625	-569.0338134765625	674.0484619140625	178.416015625	-561.5960083007812	734.2744750976562	187.5597686767578	-635.9471435546875	726.44482421875	202.0356292724609	-616.3793334960938	1613.424072265625	17.29608154296875	-420.5609130859375	1646.197509765625	-40.73675537109375	-491.1980895996094	1641.80322265625	69.19485473632812	-533.7760009765625	1623.376342773438	-140.4979400634766	-501.7862548828125	830.7216796875	-300.9966735839844	-683.8106689453125	842.011962890625	52.36651611328125	-566.7504272460938	886.9141235351562	36.0468864440918	-445.552978515625	871.8552856445312	-188.9176483154297	-468.7337341308594	415.3372802734375	-295.6552734375	-436.0223693847656	566.7803955078125	-287.4049682617188	-832.031005859375	234.2769775390625	-443.9816589355469	-590.0382690429688	325.2580261230469	-358.7845764160156	-756.1737670898438	51.70796585083008	-327.0195922851562	-796.3667602539062	116.8749313354492	-315.3363647460938	-762.9990844726562	109.0179748535156	-420.8016967773438	-865.3710327148438	287.2792663574219	-407.7176513671875	-561.1677856445312	456.2574768066406	47.88637542724609	-625.1181030273438	711.8704223632812	83.30679321289062	-605.6773071289062	39.45930862426758	-21.59282112121582	-569.5691528320312	308.5285034179688	42.10420989990234	-395.18701171875	48.13245010375977	37.34343338012695	-433.5294799804688	54.68131256103516	-24.44038963317871	-499.3858947753906	44.26688385009766	62.90402221679688	-643.2335815429688	33.3785400390625	-93.14375305175781	
185	1.84	-730.5030517578125	947.5632934570312	-123.3265609741211	-664.9682006835938	943.2584838867188	-250.1812286376953	-688.63623046875	1051.960083007812	-157.6412048339844	-427.7377624511719	1220.660278320312	-26.60046577453613	-693.7789306640625	1175.849853515625	-155.2919616699219	-629.1593627929688	1433.09912109375	-86.07244110107422	-455.3460693359375	1337.63720703125	-31.05467987060547	-729.0213012695312	1311.345336914062	-38.07704544067383	-617.5325927734375	1401.870361328125	-195.1017456054688	-486.4144897460938	1420.42138671875	-217.1179351806641	-456.225341796875	1317.359741210938	-325.6964721679688	-424.5594482421875	1109.90478515625	-382.928466796875	-525.9293823242188	1095.908081054688	-370.8172607421875	-376.9508361816406	900.8226928710938	-328.8300170898438	-385.0990905761719	893.8717651367188	-401.7415466308594	-400.9209289550781	1022.90478515625	-391.4465026855469	-356.6194152832031	736.8424682617188	-345.4705505371094	-374.1918640136719	814.119140625	-404.8945007324219	-354.0455322265625	815.7742919921875	-336.607177734375	-630.5816650390625	1382.733764648438	84.72518157958984	-675.8570556640625	1317.475341796875	143.1767578125	-685.8253173828125	1029.952758789062	190.2789001464844	-722.1837768554688	1012.868225097656	135.4906616210938	-564.5553588867188	836.8125	178.9122467041016	-645.5540161132812	815.021484375	208.2744903564453	-682.595947265625	971.31591796875	199.1751556396484	-554.617431640625	677.923828125	187.5825805664062	-547.68701171875	738.3019409179688	196.1178436279297	-621.778564453125	729.778076171875	211.7532653808594	-609.9118041992188	1615.6298828125	21.87425994873047	-414.1186828613281	1647.9521484375	-36.53891372680664	-484.5719299316406	1643.765380859375	73.54756164550781	-527.5567626953125	1625.286254882812	-136.0577545166016	-492.9033813476562	832.9447631835938	-294.8965759277344	-678.6837768554688	843.135498046875	56.81445693969727	-561.4969482421875	887.9515380859375	41.57422637939453	-438.5865783691406	874.4714965820312	-182.4980163574219	-450.1293640136719	418.4815979003906	-285.2896423339844	-420.42724609375	570.5291748046875	-278.9677429199219	-813.0905151367188	233.7377471923828	-430.511962890625	-571.4741821289062	327.4485778808594	-347.3160705566406	-730.0078735351562	54.37184906005859	-313.6501770019531	-772.5213012695312	117.8357086181641	-301.8191528320312	-739.5996704101562	111.0852890014648	-407.4699401855469	-847.9135131835938	285.7333068847656	-394.2024841308594	-560.5136108398438	456.1096496582031	49.30636215209961	-621.1958618164062	712.2811889648438	86.82919311523438	-605.775146484375	39.3670539855957	-21.54265022277832	-569.3821411132812	308.3612060546875	42.99588012695312	-395.39306640625	48.23055267333984	37.52216339111328	-433.6929016113281	54.88473892211914	-24.25616264343262	-499.4935913085938	44.0854377746582	63.04114151000977	-643.3206176757812	33.39650726318359	-93.10572814941406	
186	1.85	-723.8182373046875	949.2098999023438	-118.8663101196289	-657.5737915039062	944.6591796875	-245.3722534179688	-682.5432739257812	1053.244140625	-152.4639434814453	-421.5725402832031	1223.086791992188	-22.40046882629395	-688.0411987304688	1177.347778320312	-149.7698669433594	-623.6307983398438	1434.870361328125	-81.07859039306641	-449.49853515625	1339.899536132812	-27.13663864135742	-723.1123046875	1313.142578125	-32.25515747070312	-612.7037963867188	1403.381958007812	-190.0890655517578	-481.84130859375	1422.359619140625	-213.1457366943359	-452.2487182617188	1319.284423828125	-321.8721618652344	-419.9040832519531	1112.1689453125	-379.38818359375	-520.9495239257812	1097.257080078125	-365.9182739257812	-369.33447265625	903.9814453125	-325.5346374511719	-378.7183532714844	896.6905517578125	-398.3427124023438	-395.5667114257812	1025.40380859375	-388.0356140136719	-346.0685119628906	740.49267578125	-342.100830078125	-366.1951293945312	817.2967529296875	-401.5442199707031	-344.8027954101562	819.6188354492188	-333.5891723632812	-623.818115234375	1384.791137695312	89.69020843505859	-668.2207641601562	1319.601928710938	148.7715148925781	-675.3208618164062	1032.505004882812	198.1527709960938	-712.380859375	1014.572387695312	144.1217498779297	-552.0261840820312	840.6478271484375	186.6589202880859	-632.431640625	818.2097778320312	217.38671875	-671.3028564453125	973.9805297851562	207.4522552490234	-540.3180541992188	681.935302734375	196.6200256347656	-533.8853149414062	742.4510498046875	204.5443420410156	-607.6886596679688	733.2869873046875	221.3604888916016	-603.4076538085938	1617.868286132812	26.30479049682617	-407.6322326660156	1649.665283203125	-32.56097412109375	-477.8749084472656	1645.720703125	77.70066070556641	-521.33642578125	1627.176147460938	-131.7957916259766	-484.0469665527344	835.3026733398438	-288.87890625	-673.635498046875	844.2359008789062	61.11681365966797	-556.3008422851562	889.0001220703125	47.05781555175781	-431.6953735351562	877.1149291992188	-176.0224914550781	-431.7502136230469	421.8305053710938	-274.7706298828125	-404.9736633300781	574.5494384765625	-270.3631896972656	-793.4655151367188	231.9496612548828	-416.8207092285156	-552.7352294921875	329.2809448242188	-335.5935363769531	-702.9041748046875	56.39463424682617	-299.8298034667969	-747.8794555664062	117.9410171508789	-287.9450378417969	-715.3079223632812	112.2421264648438	-393.7350463867188	-829.9749145507812	282.7986145019531	-380.544189453125	-560.0036010742188	456.0262756347656	50.58931350708008	-617.3855590820312	712.7040405273438	90.21965789794922	-605.8819580078125	39.27510452270508	-21.48990821838379	-569.3111572265625	308.2608337402344	43.80047988891602	-395.5911865234375	48.32970428466797	37.69042587280273	-433.8758544921875	55.10919952392578	-24.06390380859375	-499.6161193847656	43.9114875793457	63.17507171630859	-643.417724609375	33.41604995727539	-93.05942535400391	
187	1.86	-717.0735473632812	950.8279418945312	-114.5590515136719	-650.1004028320312	946.0897216796875	-240.6844635009766	-676.37548828125	1054.482666015625	-147.3928070068359	-415.3840637207031	1225.534545898438	-18.23193550109863	-682.2620239257812	1178.785766601562	-144.3451232910156	-618.1307373046875	1436.600952148438	-76.20387268066406	-443.6632080078125	1342.191162109375	-23.29899978637695	-717.200439453125	1314.891357421875	-26.56426620483398	-607.8834228515625	1404.839965820312	-185.1702880859375	-477.2910461425781	1424.263305664062	-209.2502899169922	-448.287841796875	1321.1923828125	-318.1205749511719	-415.3190612792969	1114.377807617188	-375.8891906738281	-516.04931640625	1098.638305664062	-361.1160888671875	-362.0430908203125	907.0189819335938	-322.3004455566406	-372.5630493164062	899.4298706054688	-395.0134887695312	-390.3437805175781	1027.831420898438	-384.6690673828125	-336.1545104980469	744.0014038085938	-338.9547424316406	-358.5401000976562	820.3916015625	-398.3262939453125	-336.0505065917969	823.314697265625	-330.6903991699219	-617.1194458007812	1386.882446289062	94.51705932617188	-660.6762084960938	1321.798095703125	154.2148132324219	-664.8855590820312	1035.166625976562	205.8739776611328	-702.5762329101562	1016.380310058594	152.5706481933594	-539.6011352539062	844.5650024414062	194.2706604003906	-619.3847045898438	821.5394897460938	226.3544158935547	-660.0819702148438	976.7666015625	215.5731201171875	-526.1312866210938	686.0747680664062	205.5147552490234	-520.2002563476562	746.7130737304688	212.8379211425781	-593.6923828125	736.947021484375	230.8168334960938	-596.8646240234375	1620.110961914062	30.60462951660156	-401.1060791015625	1651.314331054688	-28.7761058807373	-471.1117248535156	1647.648315429688	81.67498779296875	-515.1110229492188	1629.026611328125	-127.6955490112305	-475.2703857421875	837.7532958984375	-282.9627685546875	-668.6441040039062	845.3118896484375	65.27197265625	-551.1043090820312	890.0440673828125	52.50052261352539	-424.8831176757812	879.7371215820312	-169.5070190429688	-413.6376037597656	425.3385009765625	-264.1102905273438	-389.7129516601562	578.7872314453125	-261.5945434570312	-773.1463623046875	228.9304046630859	-402.9413757324219	-533.8433837890625	330.7325439453125	-323.6484375	-674.9763793945312	57.76209259033203	-285.5858459472656	-722.5030517578125	117.2407379150391	-273.7471008300781	-690.1947631835938	112.5189666748047	-379.6267700195312	-811.5059204101562	278.4960327148438	-366.7867736816406	-559.61865234375	455.9974670410156	51.74239349365234	-613.6707763671875	713.1304931640625	93.4825439453125	-605.9939575195312	39.18445205688477	-21.43552207946777	-569.3499145507812	308.2198486328125	44.52152252197266	-395.7783203125	48.42940902709961	37.84558868408203	-434.0753479003906	55.35012435913086	-23.8632984161377	-499.755859375	43.74820709228516	63.31148529052734	-643.5204467773438	33.43943786621094	-93.00818634033203	
